<svg xmlns="http://www.w3.org/2000/svg" width="1200" height="630" viewBox="0 0 1200 630">
  <defs>
    <linearGradient id="bg" x1="0" y1="0" x2="0" y2="1">
      <stop offset="0%" stop-color="#121a28" />
      <stop offset="62%" stop-color="#0a1017" />
      <stop offset="100%" stop-color="#06090d" />
    </linearGradient>
    <radialGradient id="glowA" cx="0.22" cy="0.22" r="0.55">
      <stop offset="0%" stop-color="#d8b07e" stop-opacity="0.34" />
      <stop offset="100%" stop-color="#d8b07e" stop-opacity="0" />
    </radialGradient>
    <radialGradient id="glowB" cx="0.82" cy="0.28" r="0.42">
      <stop offset="0%" stop-color="#8daee4" stop-opacity="0.3" />
      <stop offset="100%" stop-color="#8daee4" stop-opacity="0" />
    </radialGradient>
    <linearGradient id="wall" x1="0" y1="0" x2="0" y2="1">
      <stop offset="0%" stop-color="#182230" />
      <stop offset="100%" stop-color="#0d121a" />
    </linearGradient>
    <linearGradient id="wood" x1="0" y1="0" x2="1" y2="1">
      <stop offset="0%" stop-color="#8b5e40" />
      <stop offset="100%" stop-color="#4f3127" />
    </linearGradient>
    <linearGradient id="paper" x1="0" y1="0" x2="1" y2="1">
      <stop offset="0%" stop-color="#f7ecd9" />
      <stop offset="100%" stop-color="#dac9b1" />
    </linearGradient>
  </defs>

  <rect width="1200" height="630" fill="url(#bg)" />
  <rect width="1200" height="630" fill="url(#glowA)" />
  <rect width="1200" height="630" fill="url(#glowB)" />

  <rect x="82" y="70" width="1036" height="490" rx="38" fill="url(#wall)" stroke="#ffffff1a" />
  <polygon points="82,70 1118,70 1006,190 194,190" fill="#101723" opacity="0.92" />
  <polygon points="112,510 1088,510 976,560 224,560" fill="url(#wood)" opacity="0.88" />
  <polygon points="190,196 470,196 470,458 190,458" fill="#161d28" opacity="0.96" />
  <polygon points="490,196 936,196 936,458 490,458" fill="#131922" opacity="0.98" />

  <rect x="214" y="230" width="84" height="188" rx="16" fill="#8a5b3c" />
  <rect x="312" y="220" width="84" height="198" rx="16" fill="#b68a57" />
  <rect x="410" y="238" width="40" height="180" rx="14" fill="#9ec2ea" />
  <rect x="508" y="220" width="96" height="198" rx="18" fill="#6d4b38" />
  <rect x="616" y="214" width="84" height="204" rx="18" fill="#d5ab71" />
  <rect x="714" y="228" width="74" height="190" rx="16" fill="#96b8e7" />
  <rect x="800" y="236" width="82" height="182" rx="16" fill="#7c4f37" />

  <rect x="555" y="340" width="198" height="90" rx="18" fill="#2a3647" stroke="#ffffff14" />
  <rect x="572" y="352" width="164" height="56" rx="12" fill="#0d1219" />
  <circle cx="612" cy="380" r="12" fill="#d8b07e" opacity="0.75" />
  <circle cx="654" cy="380" r="12" fill="#8daee4" opacity="0.72" />
  <rect x="594" y="442" width="100" height="14" rx="7" fill="#553726" />

  <rect x="262" y="398" width="182" height="92" rx="18" fill="url(#paper)" stroke="#ffffff22" />
  <rect x="282" y="418" width="56" height="10" rx="5" fill="#caa16d" />
  <rect x="282" y="440" width="122" height="8" rx="4" fill="#7d5a49" opacity="0.38" />
  <rect x="282" y="458" width="96" height="8" rx="4" fill="#7d5a49" opacity="0.28" />

  <circle cx="882" cy="290" r="12" fill="#f1d8b4" opacity="0.92" />
  <rect x="860" y="302" width="44" height="132" rx="22" fill="#d2a069" />
  <rect x="846" y="398" width="72" height="20" rx="10" fill="#6d4a37" />

  <rect x="120" y="92" width="380" height="72" rx="22" fill="#ffffff08" stroke="#ffffff16" />
  <text x="150" y="136" font-family="Georgia, serif" font-size="42" fill="#f8f2ea">Family Academy</text>
  <text x="122" y="580" font-family="Space Grotesk, Arial, sans-serif" font-size="24" fill="#d9d8d3">
    Cinematic student room with books, TV, and direct app downloads.
  </text>
</svg>
